<mxfile host="app.diagrams.net" modified="2023-05-13T22:58:42.493Z" agent="Mozilla/5.0 (Macintosh; Intel Mac OS X 10_15_7) AppleWebKit/537.36 (KHTML, like Gecko) Chrome/113.0.0.0 Safari/537.36" version="21.3.0" etag="tHU3N0BRlvKquu0I5oHE" type="github">
  <diagram name="Page-1" id="2tK5x1VjiKFxJT5v8L_E">
    <mxGraphModel>
      <root>
        <mxCell id="0" />
        <mxCell id="1" parent="0" />
      </root>
    </mxGraphModel>
  </diagram>
</mxfile>
